#N canvas 952 0 958 966 12;
#X obj 117 138 r notes;
#X floatatom 124 170 5 0 0 0 - - - 0;
#X obj 117 208 mtof;
#X obj 101 402 *~;
#X obj 103 444 dac~;
#X text 197 391 Volúmen;
#X text 160 206 MIDI a frecuencia;
#X text 189 138 Recibir notas;
#X text 166 173 Primer número de la nota MIDI;
#X floatatom 156 388 5 0 0 0 - - - 0;
#X obj 80 282 osc~;
#X obj 209 264 * 1.015;
#X obj 173 294 osc~;
#X obj 266 295 osc~;
#X obj 302 265 * 0.503;
#X text 265 322 Una octava abajo;
#X obj 78 79 notein;
#X connect 0 0 1 0;
#X connect 1 0 2 0;
#X connect 2 0 10 0;
#X connect 3 0 4 0;
#X connect 3 0 4 1;
#X connect 9 0 3 1;
#X connect 10 0 3 0;
#X connect 11 0 12 0;
#X connect 12 0 3 0;
#X connect 13 0 3 0;
#X connect 14 0 13 0;
#X connect 16 0 2 0;
