#N canvas 491 33 1920 976 12;
#X obj 116 74 r notes;
#X floatatom 56 111 5 0 0 0 - - - 0;
#X obj 51 148 mtof;
#X obj 106 539 *~;
#X obj 108 581 dac~;
#X text 94 146 MIDI a frecuencia;
#X text 188 74 Recibir notas;
#X text 100 113 Primer número de la nota MIDI;
#N canvas 32 32 974 624 armonicos 0;
#X obj 48 23 inlet;
#X obj 47 84 osc~;
#X obj 186 51 * 1.015;
#X obj 150 81 osc~;
#X obj 243 82 osc~;
#X obj 279 52 * 0.503;
#X obj 49 224 outlet~;
#X text 242 109 Una octava abajo;
#X obj 333 87 osc~;
#X obj 369 57 * 1.503;
#X obj 52 155 *~;
#X connect 0 0 1 0;
#X connect 0 0 2 0;
#X connect 0 0 5 0;
#X connect 0 0 9 0;
#X connect 1 0 10 0;
#X connect 2 0 3 0;
#X connect 3 0 6 0;
#X connect 4 0 6 0;
#X connect 5 0 4 0;
#X connect 8 0 6 0;
#X connect 9 0 8 0;
#X connect 10 0 6 0;
#X restore 53 222 pd armonicos;
#X obj 285 448 vsl 19 162 0 0.99 0 0 empty empty empty 0 -9 0 12 #fcfcfc #000000 #000000 0 1;
#X text 326 553 Slider 0.0->0.99;
#X obj 90 450 *~;
#X obj 59 182 trigger float bang;
#X obj 251 382 line~;
#X text 252 411 Interpolación líneal;
#X msg 257 348 1 5;
#X msg 307 349 0 500;
#X obj 254 298 bng 19 250 50 0 empty empty empty 0 -10 0 12 #fcfcfc #000000 #000000;
#X obj 328 257 del 100;
#X text 385 250 Delay de tiempo;
#X obj 322 314 pack 0 500;
#X text 479 276 Cambiar el tiempo del delay;
#X floatatom 412 286 5 0 0 0 - - - 0;
#X obj 18 42 notein;
#X connect 0 0 1 0;
#X connect 1 0 2 0;
#X connect 2 0 12 0;
#X connect 3 0 4 0;
#X connect 3 0 4 1;
#X connect 8 0 11 0;
#X connect 9 0 3 1;
#X connect 11 0 3 0;
#X connect 12 0 8 0;
#X connect 12 1 17 0;
#X connect 13 0 11 1;
#X connect 15 0 13 0;
#X connect 16 0 13 0;
#X connect 17 0 15 0;
#X connect 17 0 18 0;
#X connect 18 0 20 0;
#X connect 20 0 16 0;
#X connect 22 0 20 1;
#X connect 23 0 1 0;
