#N canvas 952 0 958 966 12;
#X obj 181 87 r notes;
#X floatatom 186 120 5 0 0 0 - - - 0;
#X obj 101 402 *~;
#X obj 103 444 dac~;
#X text 253 87 Recibir notas;
#X text 230 122 Primer número de la nota MIDI;
#X obj 396 308 vsl 19 162 0 0.99 0 0 empty empty empty 0 -9 0 12 #fcfcfc #000000 #000000 0 1;
#X text 429 365 Slider 0.0->0.99;
#X msg 131 193 next \$1;
#X obj 100 280 clone synth.cl 32;
#X obj 27 19 notein;
#X connect 0 0 1 0;
#X connect 1 0 8 0;
#X connect 2 0 3 0;
#X connect 2 0 3 1;
#X connect 6 0 2 1;
#X connect 8 0 9 0;
#X connect 9 0 2 0;
#X connect 10 0 1 0;
