#N canvas 974 154 886 696 12;
#X obj 117 138 r notes;
#X floatatom 117 174 5 0 0 0 - - - 0;
#X obj 117 208 mtof;
#X obj 117 249 osc~;
#X obj 117 357 *~;
#X obj 119 399 dac~;
#X floatatom 153 319 5 0 0 0 - - - 0;
#X text 195 322 Volúmen;
#X text 163 253 Oscilador de onda;
#X text 160 206 MIDI a frecuencia;
#X text 189 138 Recibir notas;
#X text 166 173 Primer número de la nota MIDI;
#X connect 0 0 1 0;
#X connect 1 0 2 0;
#X connect 2 0 3 0;
#X connect 3 0 4 0;
#X connect 4 0 5 0;
#X connect 4 0 5 1;
#X connect 6 0 4 1;
