#N canvas 952 0 958 966 12;
#X obj 117 138 r notes;
#X floatatom 120 170 5 0 0 0 - - - 0;
#X obj 117 208 mtof;
#X obj 101 402 *~;
#X obj 103 444 dac~;
#X text 160 206 MIDI a frecuencia;
#X text 189 138 Recibir notas;
#X text 166 173 Primer número de la nota MIDI;
#N canvas 32 32 974 624 armonicos 0;
#X obj 48 23 inlet;
#X obj 47 84 osc~;
#X obj 186 51 * 1.015;
#X obj 150 81 osc~;
#X obj 243 82 osc~;
#X obj 279 52 * 0.503;
#X obj 49 224 outlet~;
#X text 242 109 Una octava abajo;
#X obj 333 87 osc~;
#X obj 369 57 * 1.503;
#X obj 52 155 *~;
#X connect 0 0 1 0;
#X connect 0 0 2 0;
#X connect 0 0 5 0;
#X connect 0 0 9 0;
#X connect 1 0 10 0;
#X connect 2 0 3 0;
#X connect 3 0 6 0;
#X connect 4 0 6 0;
#X connect 5 0 4 0;
#X connect 8 0 6 0;
#X connect 9 0 8 0;
#X connect 10 0 6 0;
#X restore 98 300 pd armonicos;
#X obj 325 243 vsl 19 162 0 0.99 0 0 empty empty empty 0 -9 0 12 #fcfcfc #000000 #000000 0 1;
#X text 358 332 Slider 0.0->0.99;
#X connect 0 0 1 0;
#X connect 1 0 2 0;
#X connect 2 0 8 0;
#X connect 3 0 4 0;
#X connect 3 0 4 1;
#X connect 8 0 3 0;
#X connect 9 0 3 1;
