#N canvas 96 96 1315 677 12;
#X obj 310 278 *~;
#X obj 33 7 inlet;
#X obj 67 344 outlet~;
#X obj 425 41 inlet;
#X obj 23 124 osc~;
#X obj 162 91 * 1.015;
#X obj 126 121 osc~;
#X obj 219 122 osc~;
#X obj 255 92 * 0.503;
#X text 218 149 Una octava abajo;
#X obj 309 127 osc~;
#X obj 345 97 * 1.503;
#X obj 28 195 *~;
#X obj 415 244 line~;
#X text 416 273 Interpolación líneal;
#X msg 421 210 1 5;
#X msg 471 211 0 500;
#X obj 418 160 bng 19 250 50 0 empty empty empty 0 -10 0 12 #fcfcfc #000000 #000000;
#X obj 492 119 del 100;
#X text 549 112 Delay de tiempo;
#X obj 486 176 pack 0 500;
#X text 643 138 Cambiar el tiempo del delay;
#X floatatom 576 148 5 0 0 0 - - - 0;
#X connect 0 0 2 0;
#X connect 1 0 4 0;
#X connect 1 0 5 0;
#X connect 1 0 8 0;
#X connect 1 0 11 0;
#X connect 3 0 17 0;
#X connect 4 0 12 0;
#X connect 5 0 6 0;
#X connect 6 0 0 0;
#X connect 7 0 0 0;
#X connect 8 0 7 0;
#X connect 10 0 0 0;
#X connect 11 0 10 0;
#X connect 12 0 0 0;
#X connect 13 0 0 1;
#X connect 15 0 13 0;
#X connect 16 0 13 0;
#X connect 17 0 15 0;
#X connect 17 0 18 0;
#X connect 18 0 20 0;
#X connect 20 0 16 0;
#X connect 22 0 20 1;
